<svg xmlns="http://www.w3.org/2000/svg" xmlns:xlink="http://www.w3.org/1999/xlink" viewBox="0 0 84 84" version="1.1" x="0px" y="0px"><title>Heart-Lined</title><desc>Created with Sketch.</desc><g stroke="none" stroke-width="1" fill="none" fill-rule="evenodd"><g fill="#000000"><path d="M43.3494704,62.7872223 C43.3494704,62.7872223 43.5766094,62.6980355 43.6965126,62.5870235 C45.5662978,60.8558878 47.4444703,59.1698332 49.6690897,57.2124725 C50.4419239,56.5324842 54.1922148,53.255388 55.1608192,52.3992432 C59.0774543,48.9373485 61.3575442,46.7205406 63.1086141,44.5827954 C65.8283646,41.2624631 67,38.359137 67,34.7589114 C67,27.479136 61.785286,22 55.0500655,22 C51.361278,22 47.5651439,23.8656602 45.115175,26.9077576 L41.9998544,30.7760145 L38.8845338,26.9077576 C36.4345104,23.8655925 32.6386371,22 28.9499345,22 C22.2145362,22 17,27.4790187 17,34.7589114 C17,38.359137 18.1716354,41.2624631 20.8913859,44.5827954 C22.6424558,46.7205406 24.9225457,48.9373485 28.8391808,52.3992432 C29.8077852,53.255388 33.5580761,56.5324842 34.3309103,57.2124725 C36.5495208,59.1645462 38.4235534,60.8467774 40.2883358,62.5729966 C40.4132926,62.6886685 40.6505831,62.7872826 40.6505831,62.7872826 C41.2588184,63.1305506 42.7404035,63.1309349 43.3494704,62.7872223 Z M39.1155295,66.4810084 C38.8976339,66.3904545 38.6581082,66.276355 38.3792964,66.1096537 C38.1028732,65.9443804 37.8407424,65.7580127 37.5710692,65.5083776 C35.7910587,63.8606314 33.9624224,62.2161563 31.6886303,60.2155304 C31.5104232,60.0587325 31.1655006,59.756448 30.5993269,59.2607662 C30.3266772,59.022063 29.1696404,58.0093367 28.9058521,57.7784103 C27.458842,56.5116624 26.6018904,55.7602831 26.1900965,55.3963005 C22.0233675,51.713349 19.6727291,49.4074415 17.79698,47.1174851 C14.5036987,43.0969736 13,39.3170391 13,34.7589114 C13,25.353121 19.9203264,18 28.9499345,18 C33.8741417,18 38.8058366,20.4328438 41.9998544,24.3988181 C45.1938254,20.4329021 50.1257872,18 55.0500655,18 C64.0795156,18 71,25.3532599 71,34.7589114 C71,39.3170391 69.4963013,43.0969736 66.20302,47.1174851 C64.3272709,49.4074415 61.9766325,51.713349 57.8099035,55.3963005 C57.3981096,55.7602831 56.541158,56.5116624 55.0980053,57.7750335 C54.8303596,58.0093367 53.6733228,59.022063 53.4006731,59.2607662 C52.8344994,59.756448 52.4895768,60.0587325 52.3113697,60.2155304 C50.0314022,62.2215898 48.1987739,63.869772 46.4140205,65.5221812 C46.1347179,65.7807728 45.8623886,65.9719508 45.5759095,66.1392117 C45.2866272,66.3081093 45.0389244,66.4211572 44.8114202,66.5104873 L45.3153471,66.2708021 C43.4862539,67.3030081 40.5131532,67.3027776 38.6845995,66.2708021 L39.1155295,66.4810084 Z"></path></g></g></svg>