<svg xmlns="http://www.w3.org/2000/svg" xmlns:xlink="http://www.w3.org/1999/xlink" viewBox="0 0 100 100" version="1.1" x="0px" y="0px"><title>Close 7.9</title><desc>Created with Sketch.</desc><g stroke="none" stroke-width="1" fill="none" fill-rule="evenodd"><g fill-rule="nonzero" fill="#000000"><path d="M72.5275481,32.4724519 C73.8930456,31.1069544 73.8903379,28.8903379 72.5292963,27.5292963 L72.4707037,27.4707037 C71.1061717,26.1061717 68.8962248,26.1037752 67.5275481,27.4724519 L50.7118106,44.2881894 C50.3186885,44.6813115 49.6858478,44.6858478 49.2881894,44.2881894 L32.4724519,27.4724519 C31.1069544,26.1069544 28.8903379,26.1096621 27.5292963,27.4707037 L27.4707037,27.5292963 C26.1061717,28.8938283 26.1037752,31.1037752 27.4724519,32.4724519 L44.2881894,49.2881894 C44.6813115,49.6813115 44.6858478,50.3141522 44.2881894,50.7118106 L27.4724519,67.5275481 C26.1069544,68.8930456 26.1096621,71.1096621 27.4707037,72.4707037 L27.5292963,72.5292963 C28.8938283,73.8938283 31.1037752,73.8962248 32.4724519,72.5275481 L49.2881894,55.7118106 C49.6813115,55.3186885 50.3141522,55.3141522 50.7118106,55.7118106 L67.5275481,72.5275481 C68.8930456,73.8930456 71.1096621,73.8903379 72.4707037,72.5292963 L72.5292963,72.4707037 C73.8938283,71.1061717 73.8962248,68.8962248 72.5275481,67.5275481 L55.7118106,50.7118106 C55.3186885,50.3186885 55.3141522,49.6858478 55.7118106,49.2881894 L72.5275481,32.4724519 Z"></path></g></g></svg>